inDegrees=no
num_controls=7
num_derivatives=13
num_iterations=86
num_multipliers=7
num_parameters=0
num_slacks=7
num_states=26
objective=0.301636
objective_accelerations=0.000000
objective_balance=0.005276
objective_effort=0.079636
objective_height=0.207246
objective_ligament=0.009478
solver_duration=1221.849408
status=Solve_Succeeded
success=true
DataType=double
version=3
OpenSimVersion=4.5
endheader
time	/jointset/ground_pelvis/pelvis_tilt/value	/jointset/ground_pelvis/pelvis_tx/value	/jointset/ground_pelvis/pelvis_ty/value	/jointset/hip_l/hip_flexion_l/value	/jointset/hip_l/hip_adduction_l/value	/jointset/hip_l/hip_rotation_l/value	/jointset/back/lumbar_extension/value	/jointset/patellofemoral_l/patellar_flexion_l/value	/jointset/knee_l/knee_flexion_l/value	/jointset/knee_l/knee_adduction_l/value	/jointset/knee_l/knee_rotation_l/value	/jointset/ankle_l/ankle_angle_l/value	/jointset/subtalar_l/subtalar_angle_l/value	/jointset/ground_pelvis/pelvis_tilt/speed	/jointset/ground_pelvis/pelvis_tx/speed	/jointset/ground_pelvis/pelvis_ty/speed	/jointset/hip_l/hip_flexion_l/speed	/jointset/hip_l/hip_adduction_l/speed	/jointset/hip_l/hip_rotation_l/speed	/jointset/back/lumbar_extension/speed	/jointset/patellofemoral_l/patellar_flexion_l/speed	/jointset/knee_l/knee_flexion_l/speed	/jointset/knee_l/knee_adduction_l/speed	/jointset/knee_l/knee_rotation_l/speed	/jointset/ankle_l/ankle_angle_l/speed	/jointset/subtalar_l/subtalar_angle_l/speed	/forceset/tau_hip_flexion_l	/forceset/tau_hip_adduction_l	/forceset/tau_hip_rotation_l	/forceset/tau_knee_flexion_l	/forceset/tau_ankle_angle_l	/forceset/tau_subtalar_angle_l	/forceset/tau_lumbar_extension	lambda_cid13_p0	lambda_cid13_p1	lambda_cid13_p2	lambda_cid13_p3	lambda_cid13_p4	lambda_cid13_p5	lambda_cid14_p0	/jointset/ground_pelvis/pelvis_tilt/accel	/jointset/ground_pelvis/pelvis_tx/accel	/jointset/ground_pelvis/pelvis_ty/accel	/jointset/hip_l/hip_flexion_l/accel	/jointset/hip_l/hip_adduction_l/accel	/jointset/hip_l/hip_rotation_l/accel	/jointset/back/lumbar_extension/accel	/jointset/patellofemoral_l/patellar_flexion_l/accel	/jointset/knee_l/knee_flexion_l/accel	/jointset/knee_l/knee_adduction_l/accel	/jointset/knee_l/knee_rotation_l/accel	/jointset/ankle_l/ankle_angle_l/accel	/jointset/subtalar_l/subtalar_angle_l/accel	gamma_cid13_p0	gamma_cid13_p1	gamma_cid13_p2	gamma_cid13_p3	gamma_cid13_p4	gamma_cid13_p5	gamma_cid14_p0
1.5	-0.05202058288355517	-0.08756093164826816	0.4131595256944475	2.094388798948864	-0.2903097136892857	0.1259638156593164	-0.9105341466130327	2.094394926960119	2.09439492696008	0.1729452496254954	-0.1745311538707932	0.1975620461195693	0.07654565586119282	-0.3813351473029716	0.1452420262380121	0.06006440380249733	0.0009593678465066427	-0.0615604417532819	-0.1672593308883722	1.208756499982673	0.004141572927811702	0.004141572927811691	0.1347697093112485	0.0268395036798875	0.4013001018837984	0.102147034063439	-0.3827190148457108	-0.1058008807972894	-0.05840179809022711	-0.4073003205823317	0.304675259754608	0.00876265022340795	0.5258006867841712	43.25441204549336	-2.189487723958676	-10.60205131914582	-115.4478457232981	-898.0608495374465	-37.82824221500819	-0.0190955968646394	-7.549906793504584	2.544076665501688	0.9494433811431587	0.1499342080638711	2.154721440534267	5.008077008504211	17.16689268037897	-0.004495970225760107	-0.004495970225758801	-3.159325599471411	2.66570988763285	7.710024265303543	5.990572426386461	1.070617453650307e-05	7.134797276962273e-06	-9.178165086358767e-06	1.175071730919279e-06	-5.395500080778537e-06	-1.22246306692564e-06	6.4092932420254e-06
1.51	-0.05622625088976286	-0.08598717201337876	0.4138171929804247	2.094394080859705	-0.290851477276756	0.1245810401948514	-0.8975864871683142	2.094394549697124	2.094394549697189	0.1740638131277022	-0.1742022490745575	0.2019449508526236	0.07781876306465102	-0.4613706662936647	0.1689533265418955	0.07239227505357182	-0.0009130780287504489	-0.05016381160727714	-0.1077982681367302	1.381181330080691	-0.008280246050524291	-0.008280246050520582	0.08411593275648836	0.03257437824644457	0.4736870425626816	0.1476699189290649	-0.3922885879194664	-0.1047664115473276	-0.05920241425958214	-0.4387392236944688	0.3012917023975762	0.005637366822507705	0.5323810836596737	39.38551310264047	0.3185544151277129	-11.5425460026528	-99.8516281290576	-928.7336093043084	-39.68039426267337	-0.01941834803144173	-8.466466230518757	2.201345867680087	1.51318083134424	-0.5076046501657131	0.1270461655895011	6.639341321973096	17.34116934248479	-2.470239846773803	-2.470239846773392	-6.743068891594992	-1.427275765804751	6.763911081418216	3.11170348172959	3.090806082810394e-06	6.01857805833941e-06	-3.486180863555456e-06	9.779632114647147e-07	-1.04713880650264e-06	1.242213439071466e-05	1.294452305562753e-06
1.52	-0.06127949244161106	-0.08419296154448083	0.4146258833457637	2.094350284178879	-0.2913802920899751	0.1238377194405987	-0.8829024011890219	2.094148111247317	2.094148111247333	0.1745309058227363	-0.1740069259340479	0.2070039014149143	0.07940281050978126	-0.550849856431041	0.189332193039717	0.09026901967483072	-0.008856350497815774	-0.05897068690303574	-0.0393683888459315	1.55604180689757	-0.04507066443431093	-0.04507066443430932	0.004475547877061089	0.0001231725341259834	0.5365092677310658	0.1643350823978484	-0.4018581609932232	-0.1037319422973658	-0.06000303042893716	-0.4701781268066056	0.2979081450405447	0.002512083421607813	0.5389614805351752	35.5456494115624	2.815719351595268	-12.4746808656266	-85.14032392349566	-959.4099209721693	-41.75235087280945	-0.01977040976785439	-9.438641022841171	1.877589904289319	2.059218055180023	-1.064231110697741	-1.885979647818415	6.801840316335572	17.654022024151	-4.878215851315801	-4.878215851316963	-8.956647264404822	-4.971506168142294	5.797081163203777	0.2190281470179739	-3.708587635130938e-07	3.559873427294904e-06	-2.402260928758222e-06	6.681797938452803e-07	7.857967268782532e-07	8.055210807058658e-06	-4.503082648963277e-07
1.53	-0.06729625668107517	-0.08221404330601749	0.4156357350781482	2.094224272564337	-0.2920569522560161	0.1236397409694043	-0.8664373392012918	2.093418209717167	2.093418209717176	0.1742517743478715	-0.1741881319518767	0.2126375952286411	0.08105950367414082	-0.6563837826566652	0.2056314796259038	0.1120751748377994	-0.01433619522981738	-0.07571204830383675	-0.0152126025917223	1.739567887599645	-0.104431718118134	-0.1044317181181415	-0.04745403976044617	-0.02973258967336333	0.5879140030673689	0.1670590255887044	-0.4040808525395465	-0.09896616841872512	-0.06266104176308802	-0.4993445838354137	0.2865865244207011	0.002861761509838565	0.5368903179901358	29.84313092845644	3.781313983487755	-12.7645299978198	-65.785043224479	-979.5281095245493	-48.00824856513847	-0.02045466861880429	-11.69259638576731	1.383103530665595	2.297290762954002	0.0118871869858726	-1.469603241178723	-2.024578679390457	19.09149563592826	-6.993835310031446	-6.993835310032129	-1.382091337734943	-1.000243715352777	4.464848373716656	0.3087494208094674	5.807864729931352e-07	-3.252219544475812e-07	-6.214409299967396e-06	2.386792969256724e-07	-5.390758944176318e-08	-1.544895388297444e-05	1.385641553523345e-06
1.54	-0.07448472577546415	-0.08009673110271585	0.4168748436653821	2.094103812170758	-0.2928813038070588	0.1232339150688809	-0.8480590974980026	2.091988940613556	2.091988940613557	0.1738391516317663	-0.1744694220854376	0.2187158721267056	0.08274537067354694	-0.7851908274160602	0.2170109860073799	0.1361203906447191	-0.007746106304328882	-0.08850896390334893	-0.08093787471167516	1.938677750009424	-0.1849441791265929	-0.1849441791266055	-0.02222270037040415	-0.01989365061287384	0.6254258845985957	0.1701698494071624	-0.4063035440858699	-0.09420039454008482	-0.06531905309723843	-0.5285110408642224	0.2752649038008573	0.003211439598068839	0.5348191554450967	24.15422406741068	4.749456725193493	-13.0604351058992	-47.00596222214453	-999.796671573046	-54.1355529148483	-0.02125037747138753	-14.0932647295953	0.8936338633471808	2.507030183970229	1.349755620800293	-1.097090487560658	-11.17437135849683	20.77077836569185	-9.108497316242966	-9.10849731624333	6.475538141105028	2.967434085453457	3.01851040218857	0.2964042725383585	8.829813704563365e-07	-9.810533413823952e-07	-5.244249248115176e-06	6.510729888808543e-08	-3.26907645069481e-07	-1.654593981864645e-05	1.55938100698625e-06
1.55	-0.08304256968095348	-0.07788552350949367	0.4183635785585204	2.094087992413864	-0.2938124786179326	0.1219199724196638	-0.8276412997343089	2.089669795390108	2.089669795390114	0.1738901502932609	-0.1745300130899994	0.225113483009135	0.08446883893276595	-0.9268888152362976	0.2248666800961992	0.1617832718154532	0.004622836940554381	-0.09710000334019751	-0.1751149475011196	2.144638377664852	-0.2804048490899617	-0.2804048490899765	0.02595949937637008	0.00577625680517726	0.6530245539611482	0.1747477607353163	-0.4032554048207783	-0.08925491505264066	-0.06465398262932691	-0.5392638837102816	0.2651430822293937	0.00413830257782013	0.5242223335060771	20.59877027881153	5.001537785176198	-13.13727623669493	-38.03030174551273	-999.8495083259107	-56.57167836823477	-0.02170445963194154	-14.28476395446816	0.6770100604231917	2.619472481092895	1.186496824850863	-0.6466982276449047	-7.529467179386107	20.47219120580818	-9.992619467773338	-9.992619467773434	3.01897538143005	2.06848029839718	2.470010204554455	0.5708926850052203	4.368965294569607e-07	2.083789004830555e-06	1.235961812916176e-06	1.864094408667238e-07	5.303416488302243e-08	8.174041071357029e-06	-1.820349600444069e-07
